<svg width="20" height="33" viewBox="0 0 20 33" fill="none" xmlns="http://www.w3.org/2000/svg">
<path d="M19.9805 9.99023C19.9805 4.48162 15.4988 0 9.99023 0C4.48162 0 0 4.48162 0 9.99023C0 15.1727 3.96677 19.4456 9.02344 19.9335V26.5547H5.47852C4.94459 26.5547 4.51172 26.9876 4.51172 27.5215C4.51172 28.0554 4.94459 28.4883 5.47852 28.4883H9.02344V32.0332C9.02344 32.5671 9.4563 33 9.99023 33C10.5242 33 10.957 32.5671 10.957 32.0332V28.4883H14.502C15.0359 28.4883 15.4688 28.0554 15.4688 27.5215C15.4688 26.9876 15.0359 26.5547 14.502 26.5547H10.957V19.9335C16.0137 19.4456 19.9805 15.1727 19.9805 9.99023ZM1.93359 9.99023C1.93359 5.5478 5.5478 1.93359 9.99023 1.93359C14.4327 1.93359 18.0469 5.5478 18.0469 9.99023C18.0469 14.4327 14.4327 18.0469 9.99023 18.0469C5.5478 18.0469 1.93359 14.4327 1.93359 9.99023Z" fill="white"/>
</svg>
