<svg width="147" height="48" viewBox="0 0 147 48" fill="none" xmlns="http://www.w3.org/2000/svg">
<rect x="1.5" y="1.5" width="144" height="45" fill="white" stroke="#00BCD4" stroke-width="3"/>
<path d="M24.6602 18.8789C25.8223 17.5312 27.292 16.8574 29.0693 16.8574C32.4482 16.8574 34.1621 18.7861 34.2109 22.6436V33H30.6514V22.7754C30.6514 21.6816 30.4121 20.9102 29.9336 20.4609C29.4648 20.002 28.7715 19.7725 27.8535 19.7725C26.4277 19.7725 25.3633 20.4072 24.6602 21.6768V33H21.1006V10.5H24.6602V18.8789ZM47.4238 31.4473C46.3789 32.6777 44.8945 33.293 42.9707 33.293C41.252 33.293 39.9482 32.79 39.0596 31.7842C38.1807 30.7783 37.7412 29.3232 37.7412 27.4189V17.1504H41.3008V27.375C41.3008 29.3867 42.1357 30.3926 43.8057 30.3926C45.5342 30.3926 46.7012 29.7725 47.3066 28.5322V17.1504H50.8662V33H47.5117L47.4238 31.4473ZM46.1934 14.9385H43.2344L39.2793 10.5H43.3369L46.1934 14.9385ZM57.7949 17.1504L57.8975 18.9814C59.0693 17.5654 60.6074 16.8574 62.5117 16.8574C65.8125 16.8574 67.4922 18.7471 67.5508 22.5264V33H63.9912V22.7314C63.9912 21.7256 63.7715 20.9834 63.332 20.5049C62.9023 20.0166 62.1943 19.7725 61.208 19.7725C59.7725 19.7725 58.7031 20.4219 58 21.7207V33H54.4404V17.1504H57.7949ZM70.5684 24.958C70.5684 22.4971 71.1445 20.5342 72.2969 19.0693C73.459 17.5947 74.9971 16.8574 76.9111 16.8574C78.7178 16.8574 80.1387 17.4873 81.1738 18.7471L81.335 17.1504H84.543V32.5166C84.543 34.5967 83.8936 36.2373 82.5947 37.4385C81.3057 38.6396 79.5625 39.2402 77.3652 39.2402C76.2031 39.2402 75.0654 38.9961 73.9521 38.5078C72.8486 38.0293 72.0088 37.3994 71.4326 36.6182L73.1172 34.4795C74.2109 35.7783 75.5586 36.4277 77.1602 36.4277C78.3418 36.4277 79.2744 36.1055 79.958 35.4609C80.6416 34.8262 80.9834 33.8887 80.9834 32.6484V31.5791C79.958 32.7217 78.5908 33.293 76.8818 33.293C75.0264 33.293 73.5078 32.5557 72.3262 31.0811C71.1543 29.6064 70.5684 27.5654 70.5684 24.958ZM74.1133 25.2656C74.1133 26.8574 74.4355 28.1123 75.0801 29.0303C75.7344 29.9385 76.6377 30.3926 77.79 30.3926C79.2256 30.3926 80.29 29.7773 80.9834 28.5469V21.5742C80.3096 20.373 79.2549 19.7725 77.8193 19.7725C76.6475 19.7725 75.7344 20.2363 75.0801 21.1641C74.4355 22.0918 74.1133 23.459 74.1133 25.2656Z" fill="#00BCD4"/>
<path d="M98.9863 17.1504L99.0889 18.9814C100.261 17.5654 101.799 16.8574 103.703 16.8574C107.004 16.8574 108.684 18.7471 108.742 22.5264V33H105.183V22.7314C105.183 21.7256 104.963 20.9834 104.523 20.5049C104.094 20.0166 103.386 19.7725 102.399 19.7725C100.964 19.7725 99.8945 20.4219 99.1914 21.7207V33H95.6318V17.1504H98.9863ZM119.362 33.293C117.106 33.293 115.275 32.585 113.869 31.1689C112.473 29.7432 111.774 27.8486 111.774 25.4854V25.0459C111.774 23.4639 112.077 22.0527 112.683 20.8125C113.298 19.5625 114.157 18.5908 115.261 17.8975C116.364 17.2041 117.595 16.8574 118.952 16.8574C121.11 16.8574 122.775 17.5459 123.947 18.9229C125.129 20.2998 125.72 22.248 125.72 24.7676V26.2031H115.363C115.471 27.5117 115.905 28.5469 116.667 29.3086C117.438 30.0703 118.405 30.4512 119.567 30.4512C121.198 30.4512 122.526 29.792 123.552 28.4736L125.471 30.3047C124.836 31.252 123.986 31.9893 122.922 32.5166C121.867 33.0342 120.681 33.293 119.362 33.293ZM118.938 19.7139C117.961 19.7139 117.17 20.0557 116.564 20.7393C115.969 21.4229 115.588 22.375 115.422 23.5957H122.204V23.332C122.126 22.1406 121.809 21.2422 121.252 20.6367C120.695 20.0215 119.924 19.7139 118.938 19.7139ZM120.549 14.9385H117.59L113.635 10.5H117.692L120.549 14.9385Z" fill="#1C2730"/>
</svg>
