<svg width="155" height="56" viewBox="0 0 155 56" fill="none" xmlns="http://www.w3.org/2000/svg">
<g filter="url(#filter0_d)">
<rect x="5.5" y="2.5" width="144" height="45" stroke="#00BCD4" stroke-width="3"/>
<path d="M28.6602 19.8789C29.8223 18.5312 31.292 17.8574 33.0693 17.8574C36.4482 17.8574 38.1621 19.7861 38.2109 23.6436V34H34.6514V23.7754C34.6514 22.6816 34.4121 21.9102 33.9336 21.4609C33.4648 21.002 32.7715 20.7725 31.8535 20.7725C30.4277 20.7725 29.3633 21.4072 28.6602 22.6768V34H25.1006V11.5H28.6602V19.8789ZM51.4238 32.4473C50.3789 33.6777 48.8945 34.293 46.9707 34.293C45.252 34.293 43.9482 33.79 43.0596 32.7842C42.1807 31.7783 41.7412 30.3232 41.7412 28.4189V18.1504H45.3008V28.375C45.3008 30.3867 46.1357 31.3926 47.8057 31.3926C49.5342 31.3926 50.7012 30.7725 51.3066 29.5322V18.1504H54.8662V34H51.5117L51.4238 32.4473ZM50.1934 15.9385H47.2344L43.2793 11.5H47.3369L50.1934 15.9385ZM61.7949 18.1504L61.8975 19.9814C63.0693 18.5654 64.6074 17.8574 66.5117 17.8574C69.8125 17.8574 71.4922 19.7471 71.5508 23.5264V34H67.9912V23.7314C67.9912 22.7256 67.7715 21.9834 67.332 21.5049C66.9023 21.0166 66.1943 20.7725 65.208 20.7725C63.7725 20.7725 62.7031 21.4219 62 22.7207V34H58.4404V18.1504H61.7949ZM74.5684 25.958C74.5684 23.4971 75.1445 21.5342 76.2969 20.0693C77.459 18.5947 78.9971 17.8574 80.9111 17.8574C82.7178 17.8574 84.1387 18.4873 85.1738 19.7471L85.335 18.1504H88.543V33.5166C88.543 35.5967 87.8936 37.2373 86.5947 38.4385C85.3057 39.6396 83.5625 40.2402 81.3652 40.2402C80.2031 40.2402 79.0654 39.9961 77.9521 39.5078C76.8486 39.0293 76.0088 38.3994 75.4326 37.6182L77.1172 35.4795C78.2109 36.7783 79.5586 37.4277 81.1602 37.4277C82.3418 37.4277 83.2744 37.1055 83.958 36.4609C84.6416 35.8262 84.9834 34.8887 84.9834 33.6484V32.5791C83.958 33.7217 82.5908 34.293 80.8818 34.293C79.0264 34.293 77.5078 33.5557 76.3262 32.0811C75.1543 30.6064 74.5684 28.5654 74.5684 25.958ZM78.1133 26.2656C78.1133 27.8574 78.4355 29.1123 79.0801 30.0303C79.7344 30.9385 80.6377 31.3926 81.79 31.3926C83.2256 31.3926 84.29 30.7773 84.9834 29.5469V22.5742C84.3096 21.373 83.2549 20.7725 81.8193 20.7725C80.6475 20.7725 79.7344 21.2363 79.0801 22.1641C78.4355 23.0918 78.1133 24.459 78.1133 26.2656Z" fill="#00BCD4"/>
<path d="M102.986 18.1504L103.089 19.9814C104.261 18.5654 105.799 17.8574 107.703 17.8574C111.004 17.8574 112.684 19.7471 112.742 23.5264V34H109.183V23.7314C109.183 22.7256 108.963 21.9834 108.523 21.5049C108.094 21.0166 107.386 20.7725 106.399 20.7725C104.964 20.7725 103.895 21.4219 103.191 22.7207V34H99.6318V18.1504H102.986ZM123.362 34.293C121.106 34.293 119.275 33.585 117.869 32.1689C116.473 30.7432 115.774 28.8486 115.774 26.4854V26.0459C115.774 24.4639 116.077 23.0527 116.683 21.8125C117.298 20.5625 118.157 19.5908 119.261 18.8975C120.364 18.2041 121.595 17.8574 122.952 17.8574C125.11 17.8574 126.775 18.5459 127.947 19.9229C129.129 21.2998 129.72 23.248 129.72 25.7676V27.2031H119.363C119.471 28.5117 119.905 29.5469 120.667 30.3086C121.438 31.0703 122.405 31.4512 123.567 31.4512C125.198 31.4512 126.526 30.792 127.552 29.4736L129.471 31.3047C128.836 32.252 127.986 32.9893 126.922 33.5166C125.867 34.0342 124.681 34.293 123.362 34.293ZM122.938 20.7139C121.961 20.7139 121.17 21.0557 120.564 21.7393C119.969 22.4229 119.588 23.375 119.422 24.5957H126.204V24.332C126.126 23.1406 125.809 22.2422 125.252 21.6367C124.695 21.0215 123.924 20.7139 122.938 20.7139ZM124.549 15.9385H121.59L117.635 11.5H121.692L124.549 15.9385Z" fill="#1C2730"/>
</g>
<defs>
<filter id="filter0_d" x="0" y="0" width="155" height="56" filterUnits="userSpaceOnUse" color-interpolation-filters="sRGB">
<feFlood flood-opacity="0" result="BackgroundImageFix"/>
<feColorMatrix in="SourceAlpha" type="matrix" values="0 0 0 0 0 0 0 0 0 0 0 0 0 0 0 0 0 0 127 0"/>
<feOffset dy="3"/>
<feGaussianBlur stdDeviation="2"/>
<feColorMatrix type="matrix" values="0 0 0 0 0 0 0 0 0 0.737255 0 0 0 0 0.831373 0 0 0 0.25 0"/>
<feBlend mode="normal" in2="BackgroundImageFix" result="effect1_dropShadow"/>
<feBlend mode="normal" in="SourceGraphic" in2="effect1_dropShadow" result="shape"/>
</filter>
</defs>
</svg>
