<svg width="59" height="48" viewBox="0 0 59 48" fill="none" xmlns="http://www.w3.org/2000/svg">
<rect x="1.5" y="1.5" width="56" height="45" fill="white" stroke="#00BCD4" stroke-width="3"/>
<path d="M17.6475 18.8789C18.8096 17.5312 20.2793 16.8574 22.0566 16.8574C25.4355 16.8574 27.1494 18.7861 27.1982 22.6436V33H23.6387V22.7754C23.6387 21.6816 23.3994 20.9102 22.9209 20.4609C22.4521 20.002 21.7588 19.7725 20.8408 19.7725C19.415 19.7725 18.3506 20.4072 17.6475 21.6768V33H14.0879V10.5H17.6475V18.8789Z" fill="#00BCD4"/>
<path d="M34.1123 17.1504L34.2148 18.9814C35.3867 17.5654 36.9248 16.8574 38.8291 16.8574C42.1299 16.8574 43.8096 18.7471 43.8682 22.5264V33H40.3086V22.7314C40.3086 21.7256 40.0889 20.9834 39.6494 20.5049C39.2197 20.0166 38.5117 19.7725 37.5254 19.7725C36.0898 19.7725 35.0205 20.4219 34.3174 21.7207V33H30.7578V17.1504H34.1123Z" fill="#1C2730"/>
</svg>
