<svg width="30" height="30" viewBox="0 0 30 30" fill="none" xmlns="http://www.w3.org/2000/svg">
<path d="M29.1211 0H20.918C20.4326 0 20.0391 0.393516 20.0391 0.878906C20.0391 1.3643 20.4326 1.75781 20.918 1.75781H26.9992L16.8564 11.9006C15.0105 10.342 12.6977 9.49219 10.2539 9.49219C7.515 9.49219 4.94004 10.5588 3.00328 12.4955C1.06652 14.4322 0 17.0072 0 19.7461C0 22.485 1.06658 25.06 3.00328 26.9967C4.93998 28.9335 7.515 30 10.2539 30C12.9928 30 15.5678 28.9334 17.5045 26.9967C19.4413 25.06 20.5078 22.485 20.5078 19.7461C20.5078 17.3023 19.658 14.9895 18.0994 13.1436L28.2422 3.00076V9.08203C28.2422 9.56742 28.6357 9.96094 29.1211 9.96094C29.6065 9.96094 30 9.56742 30 9.08203V0.878906C30 0.393516 29.6065 0 29.1211 0ZM16.2616 25.7538C14.6569 27.3584 12.5233 28.2422 10.2539 28.2422C7.98451 28.2422 5.85094 27.3584 4.24623 25.7538C2.64158 24.1491 1.75781 22.0155 1.75781 19.7461C1.75781 17.4767 2.64158 15.3431 4.24623 13.7384C5.85094 12.1338 7.98451 11.25 10.2539 11.25C12.5233 11.25 14.6569 12.1338 16.2616 13.7384C17.8662 15.3431 18.75 17.4767 18.75 19.7461C18.75 22.0155 17.8662 24.1491 16.2616 25.7538Z" fill="white"/>
</svg>
