<svg width="35" height="40" viewBox="0 0 35 40" fill="none" xmlns="http://www.w3.org/2000/svg">
<path d="M24.5 23.75C22.2578 23.75 21.1797 25 17.5 25C13.8203 25 12.75 23.75 10.5 23.75C4.70312 23.75 0 28.4531 0 34.25V36.25C0 38.3203 1.67969 40 3.75 40H31.25C33.3203 40 35 38.3203 35 36.25V34.25C35 28.4531 30.2969 23.75 24.5 23.75ZM31.25 36.25H3.75V34.25C3.75 30.5312 6.78125 27.5 10.5 27.5C11.6406 27.5 13.4922 28.75 17.5 28.75C21.5391 28.75 23.3516 27.5 24.5 27.5C28.2188 27.5 31.25 30.5312 31.25 34.25V36.25ZM17.5 22.5C23.7109 22.5 28.75 17.4609 28.75 11.25C28.75 5.03906 23.7109 0 17.5 0C11.2891 0 6.25 5.03906 6.25 11.25C6.25 17.4609 11.2891 22.5 17.5 22.5ZM17.5 3.75C21.6328 3.75 25 7.11719 25 11.25C25 15.3828 21.6328 18.75 17.5 18.75C13.3672 18.75 10 15.3828 10 11.25C10 7.11719 13.3672 3.75 17.5 3.75Z" fill="#00BCD4"/>
</svg>
